<svg width="21" height="20" viewBox="0 0 21 20" fill="none" xmlns="http://www.w3.org/2000/svg">
<g clip-path="url(#clip0_3_11)">
<path d="M10.3198 1.802C12.9898 1.802 13.3068 1.812 14.3618 1.861C17.0718 1.984 18.3378 3.27 18.4608 5.96C18.5088 7.014 18.5178 7.33 18.5178 10C18.5178 12.672 18.5078 12.988 18.4608 14.042C18.3368 16.729 17.0738 18.017 14.3608 18.141C13.3068 18.189 12.9908 18.199 10.3198 18.199C7.64982 18.199 7.33282 18.189 6.27982 18.141C3.56182 18.017 2.30281 16.725 2.17981 14.041C2.13181 12.987 2.12181 12.671 2.12181 10C2.12181 7.33 2.13181 7.014 2.17981 5.96C2.30381 3.27 3.56682 1.983 6.27982 1.86C7.33382 1.812 7.64982 1.802 10.3198 1.802ZM10.3198 0C7.60382 0 7.26382 0.012 6.19682 0.06C2.56582 0.227 0.546814 2.242 0.380814 5.877C0.330814 6.944 0.319824 7.284 0.319824 10C0.319824 12.716 0.331822 13.057 0.379822 14.123C0.546822 17.755 2.56182 19.773 6.19682 19.94C7.26382 19.988 7.60382 20 10.3198 20C13.0358 20 13.3768 19.988 14.4428 19.94C18.0718 19.773 20.0948 17.758 20.2588 14.123C20.3088 13.057 20.3198 12.716 20.3198 10C20.3198 7.284 20.3078 6.944 20.2598 5.878C20.0968 2.249 18.0798 0.228 14.4438 0.061C13.3768 0.01 13.0358 0 10.3198 0ZM10.3198 4.865C8.95794 4.865 7.65183 5.40601 6.68883 6.36901C5.72583 7.33201 5.18481 8.63811 5.18481 10C5.18481 11.3619 5.72583 12.668 6.68883 13.631C7.65183 14.594 8.95794 15.135 10.3198 15.135C11.6817 15.135 12.9878 14.594 13.9508 13.631C14.9138 12.668 15.4548 11.3619 15.4548 10C15.4548 8.63811 14.9138 7.33201 13.9508 6.36901C12.9878 5.40601 11.6817 4.865 10.3198 4.865ZM10.3198 13.333C9.43586 13.333 8.58809 12.9818 7.96303 12.3568C7.33797 11.7317 6.98682 10.884 6.98682 10C6.98682 9.11603 7.33797 8.26827 7.96303 7.64321C8.58809 7.01815 9.43586 6.667 10.3198 6.667C11.2038 6.667 12.0515 7.01815 12.6766 7.64321C13.3017 8.26827 13.6528 9.11603 13.6528 10C13.6528 10.884 13.3017 11.7317 12.6766 12.3568C12.0515 12.9818 11.2038 13.333 10.3198 13.333ZM15.6578 3.463C15.3396 3.463 15.0343 3.58943 14.8093 3.81447C14.5843 4.03952 14.4578 4.34474 14.4578 4.663C14.4578 4.98126 14.5843 5.28648 14.8093 5.51153C15.0343 5.73657 15.3396 5.863 15.6578 5.863C15.9761 5.863 16.2813 5.73657 16.5063 5.51153C16.7314 5.28648 16.8578 4.98126 16.8578 4.663C16.8578 4.34474 16.7314 4.03952 16.5063 3.81447C16.2813 3.58943 15.9761 3.463 15.6578 3.463Z" fill="url(#paint0_linear_3_11)"/>
</g>
<defs>
<linearGradient id="paint0_linear_3_11" x1="0.319809" y1="2000" x2="1000.32" y2="2.23517e-05" gradientUnits="userSpaceOnUse">
<stop stop-color="#FFC593"/>
<stop offset="0.51945" stop-color="#BC7198"/>
<stop offset="1" stop-color="#5A77FF"/>
</linearGradient>
<clipPath id="clip0_3_11">
<rect width="21" height="20" fill="white"/>
</clipPath>
</defs>
</svg>
