<svg width="20" height="20" viewBox="0 0 20 20" fill="none" xmlns="http://www.w3.org/2000/svg">
<g clip-path="url(#clip0_3_16)">
<path d="M9.99023 0C4.46823 0 -0.00976562 4.477 -0.00976562 10C-0.00976562 14.237 2.62624 17.855 6.34624 19.312C6.25824 18.521 6.17923 17.307 6.38123 16.444C6.56223 15.664 7.55324 11.474 7.55324 11.474C7.55324 11.474 7.25423 10.874 7.25423 9.988C7.25423 8.598 8.06024 7.56 9.06424 7.56C9.91624 7.56 10.3282 8.2 10.3282 8.968C10.3282 9.826 9.78224 11.108 9.50024 12.298C9.26424 13.293 10.0002 14.105 10.9802 14.105C12.7582 14.105 14.1242 12.231 14.1242 9.525C14.1242 7.132 12.4042 5.457 9.94823 5.457C7.10323 5.457 5.43324 7.592 5.43324 9.797C5.43324 10.656 5.76324 11.578 6.17724 12.078C6.21267 12.1159 6.23765 12.1624 6.24975 12.2129C6.26184 12.2634 6.26064 12.3161 6.24624 12.366L5.96824 13.499C5.92424 13.682 5.82324 13.722 5.63324 13.633C4.38424 13.052 3.60323 11.226 3.60323 9.759C3.60323 6.605 5.89524 3.707 10.2112 3.707C13.6802 3.707 16.3762 6.18 16.3762 9.483C16.3762 12.93 14.2032 15.703 11.1862 15.703C10.1732 15.703 9.22123 15.178 8.89523 14.555L8.27224 16.933C8.04624 17.802 7.43724 18.891 7.02824 19.554C7.96524 19.844 8.95923 20 9.99023 20C15.5132 20 19.9902 15.523 19.9902 10C19.9902 4.477 15.5132 0 9.99023 0Z" fill="url(#paint0_linear_3_16)"/>
</g>
<defs>
<linearGradient id="paint0_linear_3_16" x1="1999.99" y1="0" x2="-0.00976563" y2="2000" gradientUnits="userSpaceOnUse">
<stop stop-color="#F6C683"/>
<stop offset="1" stop-color="#DE3838"/>
</linearGradient>
<clipPath id="clip0_3_16">
<rect width="20" height="20" fill="white"/>
</clipPath>
</defs>
</svg>
