<svg width="21" height="18" viewBox="0 0 21 18" fill="none" xmlns="http://www.w3.org/2000/svg">
<g clip-path="url(#clip0_3_18)">
<path d="M20.6602 2.79705C19.9112 3.12903 19.1167 3.34678 18.3032 3.44305C19.1607 2.93085 19.8023 2.12391 20.1082 1.17305C19.3026 1.65111 18.4212 1.98796 17.5022 2.16905C17.1184 1.75932 16.6545 1.43284 16.1393 1.2099C15.6241 0.986956 15.0685 0.8723 14.5072 0.873051C11.8572 0.873051 9.91116 3.34505 10.5092 5.91105C8.87772 5.82942 7.28169 5.40555 5.82471 4.66699C4.36774 3.92842 3.0824 2.89167 2.05215 1.62405C1.5279 2.52752 1.36741 3.59675 1.60332 4.61432C1.83923 5.6319 2.45383 6.52143 3.32215 7.10205C2.67077 7.08167 2.03371 6.90578 1.46415 6.58905C1.41915 8.49005 2.78215 10.2691 4.75515 10.6641C4.15086 10.8281 3.5171 10.8521 2.90215 10.7341C3.164 11.5495 3.67429 12.2627 4.3616 12.7737C5.04891 13.2848 5.87882 13.5681 6.73515 13.5841C5.01532 14.9331 2.8304 15.5445 0.660156 15.2841C2.53644 16.4894 4.72004 17.1293 6.95015 17.1271C14.5681 17.1271 18.8722 10.6931 18.6122 4.92205C19.4154 4.34117 20.1089 3.62195 20.6602 2.79805V2.79705Z" fill="url(#paint0_linear_3_18)"/>
</g>
<defs>
<linearGradient id="paint0_linear_3_18" x1="2000.66" y1="276.85" x2="270.726" y2="1682.64" gradientUnits="userSpaceOnUse">
<stop stop-color="#65FFEB"/>
<stop offset="1" stop-color="#27718A"/>
</linearGradient>
<clipPath id="clip0_3_18">
<rect width="21" height="18" fill="white"/>
</clipPath>
</defs>
</svg>
